<?xml version="1.0" encoding="utf-8" ?>
<svg baseProfile="tiny" height="100%" version="1.2" width="100%" xmlns="http://www.w3.org/2000/svg" xmlns:ev="http://www.w3.org/2001/xml-events" xmlns:xlink="http://www.w3.org/1999/xlink"><defs /><polyline fill="none" points="353.0,67.998 352.0,67.998 351.002,67.0 351.0,66.998 350.0,66.998 349.0,66.998 348.0,66.998 347.0,66.998 346.0,66.998 345.0,66.998 344.998,67.0 344.0,67.998 343.0,67.998 342.0,67.998 341.0,67.998 340.0,67.998 339.0,67.998 338.0,67.998 337.0,67.998 336.002,67.0 336.0,66.998 335.0,66.998 334.002,66.0 334.0,65.998 333.002,65.0 333.0,64.998 332.0,64.998 331.002,64.0 331.002,63.0 331.0,62.998 330.002,62.0 330.0,61.998 329.002,61.0 329.002,60.0 329.0,59.998 328.002,59.0 328.002,58.0 328.002,57.0 328.002,56.0 328.0,55.998 327.002,55.0 327.002,54.0 327.002,53.0 327.002,52.0 327.002,51.0 327.002,50.0 327.002,49.0 327.002,48.0 328.0,47.002 328.002,47.0 328.002,46.0 329.0,45.002 329.002,45.0 329.002,44.0 330.0,43.002 330.002,43.0 330.002,42.0 331.0,41.002 331.002,41.0 332.0,40.002 332.002,40.0 333.0,39.002 334.0,39.002 334.002,39.0 335.0,38.002 335.002,38.0 336.0,37.002 337.0,37.002 338.0,37.002 338.002,37.0 339.0,36.002 340.0,36.002 341.0,36.002 342.0,36.002 343.0,36.002 343.998,37.0 344.0,37.002 345.0,37.002 346.0,37.002 347.0,37.002 347.002,37.0 347.002,36.0 347.002,35.0 347.002,34.0 347.002,33.0 347.002,32.0 347.002,31.0 347.002,30.0 347.002,29.0 348.0,28.002 348.002,28.0 348.002,27.0 349.0,26.002 350.0,26.002 350.002,26.0 351.0,25.002 352.0,25.002 353.0,25.002 354.0,25.002 355.0,25.002 355.998,26.0 356.0,26.002 356.998,27.0 357.0,27.002 357.998,28.0 357.998,29.0 357.998,30.0 357.998,31.0 357.998,32.0 357.998,33.0 357.998,34.0 357.998,35.0 357.998,36.0 357.998,37.0 357.998,38.0 357.998,39.0 357.998,40.0 357.998,41.0 357.998,42.0 357.998,43.0 357.998,44.0 357.998,45.0 357.998,46.0 357.998,47.0 357.998,48.0 357.998,49.0 357.998,50.0 357.998,51.0 357.998,52.0 357.998,53.0 357.998,54.0 357.998,55.0 357.998,56.0 357.998,57.0 357.998,58.0 357.998,59.0 357.998,60.0 357.998,61.0 357.998,62.0 357.998,63.0 357.998,64.0 357.0,64.998 356.998,65.0 356.0,65.998 355.998,66.0 355.0,66.998 354.0,66.998 353.998,67.0 353.0,67.998" stroke="black" stroke-width="1" /><polyline fill="none" points="366.0,67.998 365.0,67.998 364.002,67.0 364.0,66.998 363.0,66.998 362.002,66.0 362.0,65.998 361.0,65.998 360.002,65.0 360.002,64.0 360.0,63.998 359.002,63.0 359.002,62.0 359.002,61.0 359.002,60.0 359.002,59.0 359.002,58.0 359.002,57.0 359.002,56.0 359.002,55.0 359.002,54.0 359.002,53.0 359.002,52.0 359.002,51.0 359.002,50.0 359.002,49.0 359.002,48.0 359.002,47.0 359.002,46.0 359.002,45.0 359.002,44.0 359.002,43.0 360.0,42.002 360.002,42.0 360.002,41.0 360.002,40.0 361.0,39.002 361.002,39.0 362.0,38.002 362.002,38.0 362.002,37.0 362.002,36.0 362.002,35.0 362.0,34.998 361.002,34.0 361.0,33.998 360.002,33.0 360.0,32.998 359.002,32.0 359.002,31.0 359.002,30.0 360.0,29.002 360.002,29.0 360.002,28.0 361.0,27.002 361.002,27.0 362.0,26.002 363.0,26.002 364.0,26.002 365.0,26.002 366.0,26.002 367.0,26.002 367.998,27.0 368.0,27.002 368.998,28.0 369.0,28.002 369.998,29.0 369.998,30.0 369.998,31.0 369.998,32.0 369.998,33.0 369.0,33.998 368.998,34.0 368.0,34.998 367.998,35.0 367.0,35.998 366.998,36.0 367.0,36.002 367.998,37.0 367.998,38.0 368.0,38.002 368.998,39.0 368.998,40.0 369.0,40.002 369.998,41.0 369.998,42.0 369.998,43.0 369.998,44.0 369.998,45.0 369.998,46.0 369.998,47.0 369.998,48.0 369.998,49.0 369.998,50.0 369.998,51.0 369.998,52.0 369.998,53.0 369.998,54.0 369.998,55.0 369.998,56.0 369.998,57.0 369.998,58.0 369.998,59.0 369.998,60.0 369.998,61.0 369.998,62.0 369.998,63.0 369.998,64.0 369.0,64.998 368.998,65.0 368.998,66.0 368.0,66.998 367.0,66.998 366.998,67.0 366.0,67.998" stroke="black" stroke-width="1" /><polyline fill="none" points="506.0,67.998 505.0,67.998 504.0,67.998 503.0,67.998 502.0,67.998 501.0,67.998 500.0,67.998 499.0,67.998 498.0,67.998 497.0,67.998 496.002,67.0 496.0,66.998 495.0,66.998 494.0,66.998 493.002,66.0 493.0,65.998 492.0,65.998 491.002,65.0 491.0,64.998 490.002,64.0 490.0,63.998 489.002,63.0 489.0,62.998 488.002,62.0 488.002,61.0 488.0,60.998 487.002,60.0 487.002,59.0 487.0,58.998 486.002,58.0 486.002,57.0 486.002,56.0 486.0,55.998 485.002,55.0 485.002,54.0 485.002,53.0 485.002,52.0 485.002,51.0 485.002,50.0 485.0,49.998 484.998,50.0 484.998,51.0 484.0,51.998 483.998,52.0 483.998,53.0 483.998,54.0 483.0,54.998 482.998,55.0 482.998,56.0 482.998,57.0 482.0,57.998 481.998,58.0 481.998,59.0 481.998,60.0 481.0,60.998 480.998,61.0 480.998,62.0 480.998,63.0 480.998,64.0 480.0,64.998 479.998,65.0 479.0,65.998 478.998,66.0 478.0,66.998 477.0,66.998 476.0,66.998 475.0,66.998 474.0,66.998 473.0,66.998 472.0,66.998 471.0,66.998 470.0,66.998 469.002,66.0 469.0,65.998 468.002,65.0 468.0,64.998 467.002,64.0 467.0,63.998 466.002,63.0 466.002,62.0 466.002,61.0 466.0,60.998 465.002,60.0 465.002,59.0 465.002,58.0 465.0,57.998 464.002,57.0 464.002,56.0 464.002,55.0 464.0,54.998 463.002,54.0 463.002,53.0 463.002,52.0 463.0,51.998 462.002,51.0 462.0,50.998 461.998,51.0 461.998,52.0 461.998,53.0 461.0,53.998 460.998,54.0 460.998,55.0 460.998,56.0 460.998,57.0 460.0,57.998 459.998,58.0 459.998,59.0 459.0,59.998 458.998,60.0 458.998,61.0 458.0,61.998 457.998,62.0 457.0,62.998 456.998,63.0 456.0,63.998 455.998,64.0 455.0,64.998 454.998,65.0 454.0,65.998 453.0,65.998 452.998,66.0 452.0,66.998 451.0,66.998 450.0,66.998 449.998,67.0 449.0,67.998 448.0,67.998 447.0,67.998 446.0,67.998 445.0,67.998 444.0,67.998 443.0,67.998 442.0,67.998 441.0,67.998 440.002,67.0 440.0,66.998 439.0,66.998 438.0,66.998 437.002,66.0 437.0,65.998 436.0,65.998 435.002,65.0 435.0,64.998 434.002,64.0 434.0,63.998 433.002,63.0 433.0,62.998 432.002,62.0 432.0,61.998 431.002,61.0 431.002,60.0 431.0,59.998 430.002,59.0 430.0,58.998 429.0,58.998 428.998,59.0 428.998,60.0 428.0,60.998 427.998,61.0 427.998,62.0 427.0,62.998 426.998,63.0 426.0,63.998 425.998,64.0 425.0,64.998 424.998,65.0 424.0,65.998 423.0,65.998 422.998,66.0 422.0,66.998 421.0,66.998 420.0,66.998 419.998,67.0 419.0,67.998 418.0,67.998 417.0,67.998 416.0,67.998 415.0,67.998 414.0,67.998 413.0,67.998 412.0,67.998 411.0,67.998 410.0,67.998 409.002,67.0 409.0,66.998 408.0,66.998 407.0,66.998 406.002,66.0 406.0,65.998 405.0,65.998 404.002,65.0 404.0,64.998 403.002,64.0 403.0,63.998 402.002,63.0 402.0,62.998 401.002,62.0 401.0,61.998 400.002,61.0 400.002,60.0 400.0,59.998 399.0,59.998 398.0,59.998 397.998,60.0 397.998,61.0 397.0,61.998 396.998,62.0 396.998,63.0 396.0,63.998 395.998,64.0 395.0,64.998 394.998,65.0 394.0,65.998 393.0,65.998 392.998,66.0 392.0,66.998 391.0,66.998 390.0,66.998 389.998,67.0 389.0,67.998 388.0,67.998 387.0,67.998 386.0,67.998 385.0,67.998 384.0,67.998 383.0,67.998 382.0,67.998 381.0,67.998 380.0,67.998 379.002,67.0 379.0,66.998 378.0,66.998 377.0,66.998 376.002,66.0 376.0,65.998 375.0,65.998 374.002,65.0 374.0,64.998 373.002,64.0 373.002,63.0 373.0,62.998 372.002,62.0 372.002,61.0 372.002,60.0 372.002,59.0 372.002,58.0 373.0,57.002 373.002,57.0 374.0,56.002 374.002,56.0 375.0,55.002 375.002,55.0 375.002,54.0 375.0,53.998 374.002,53.0 374.0,52.998 373.002,52.0 373.002,51.0 373.0,50.998 372.002,50.0 372.002,49.0 372.002,48.0 372.002,47.0 372.002,46.0 372.002,45.0 372.002,44.0 372.002,43.0 373.0,42.002 373.002,42.0 373.002,41.0 374.0,40.002 374.002,40.0 375.0,39.002 376.0,39.002 377.0,39.002 377.002,39.0 378.0,38.002 378.002,38.0 379.0,37.002 380.0,37.002 380.002,37.0 381.0,36.002 382.0,36.002 383.0,36.002 384.0,36.002 385.0,36.002 386.0,36.002 387.0,36.002 387.998,37.0 388.0,37.002 389.0,37.002 390.0,37.002 391.0,37.002 391.998,38.0 392.0,38.002 392.998,39.0 393.0,39.002 394.0,39.002 394.998,40.0 395.0,40.002 395.998,41.0 396.0,41.002 396.998,42.0 396.998,43.0 397.0,43.002 397.998,44.0 397.998,45.0 397.998,46.0 397.0,46.998 396.998,47.0 396.0,47.998 395.998,48.0 395.998,49.0 395.0,49.998 394.998,50.0 394.998,51.0 395.0,51.002 395.998,52.0 396.0,52.002 396.998,53.0 397.0,53.002 397.002,53.0 398.0,52.002 398.002,52.0 398.002,51.0 398.002,50.0 399.0,49.002 399.002,49.0 399.002,48.0 399.002,47.0 399.002,46.0 400.0,45.002 400.002,45.0 400.002,44.0 401.0,43.002 401.002,43.0 401.002,42.0 402.0,41.002 402.002,41.0 403.0,40.002 404.0,40.002 404.002,40.0 405.0,39.002 405.002,39.0 406.0,38.002 407.0,38.002 408.0,38.002 408.002,38.0 409.0,37.002 410.0,37.002 411.0,37.002 411.002,37.0 412.0,36.002 413.0,36.002 414.0,36.002 415.0,36.002 416.0,36.002 417.0,36.002 417.998,37.0 418.0,37.002 419.0,37.002 420.0,37.002 421.0,37.002 421.998,38.0 422.0,38.002 422.998,39.0 423.0,39.002 424.0,39.002 424.998,40.0 425.0,40.002 425.998,41.0 426.0,41.002 426.998,42.0 427.0,42.002 427.998,43.0 427.998,44.0 428.0,44.002 428.998,45.0 429.0,45.002 429.998,46.0 430.0,46.002 430.002,46.0 431.0,45.002 431.002,45.0 432.0,44.002 432.002,44.0 432.002,43.0 433.0,42.002 433.002,42.0 434.0,41.002 434.002,41.0 435.0,40.002 435.002,40.0 436.0,39.002 436.002,39.0 437.0,38.002 438.0,38.002 438.002,38.0 439.0,37.002 440.0,37.002 441.0,37.002 441.002,37.0 442.0,36.002 443.0,36.002 444.0,36.002 445.0,36.002 446.0,36.002 447.0,36.002 448.0,36.002 448.998,37.0 449.0,37.002 450.0,37.002 451.0,37.002 451.998,38.0 452.0,38.002 453.0,38.002 453.998,39.0 454.0,39.002 454.998,40.0 455.0,40.002 456.0,40.002 456.998,41.0 457.0,41.002 457.998,42.0 458.0,42.002 458.998,43.0 459.0,43.002 459.002,43.0 460.0,42.002 460.002,42.0 460.002,41.0 460.002,40.0 460.002,39.0 461.0,38.002 461.002,38.0 462.0,37.002 463.0,37.002 464.0,37.002 465.0,37.002 466.0,37.002 467.0,37.002 467.998,38.0 468.0,38.002 468.998,39.0 469.0,39.002 469.998,40.0 469.998,41.0 470.0,41.002 470.998,42.0 470.998,43.0 470.998,44.0 470.998,45.0 471.0,45.002 471.998,46.0 471.998,47.0 471.998,48.0 472.0,48.002 472.998,49.0 472.998,50.0 473.0,50.002 473.998,51.0 474.0,51.002 475.0,51.002 475.002,51.0 475.002,50.0 475.002,49.0 475.002,48.0 475.002,47.0 475.002,46.0 476.0,45.002 476.002,45.0 476.002,44.0 476.002,43.0 477.0,42.002 477.002,42.0 477.002,41.0 478.0,40.002 478.002,40.0 478.002,39.0 479.0,38.002 479.002,38.0 480.0,37.002 481.0,37.002 481.002,37.0 482.0,36.002 483.0,36.002 483.998,37.0 484.0,37.002 485.0,37.002 485.998,38.0 486.0,38.002 486.998,39.0 486.998,40.0 486.998,41.0 487.0,41.002 487.998,42.0 487.998,43.0 488.0,43.002 488.002,43.0 489.0,42.002 489.002,42.0 490.0,41.002 490.002,41.0 491.0,40.002 491.002,40.0 492.0,39.002 493.0,39.002 493.002,39.0 494.0,38.002 495.0,38.002 495.002,38.0 496.0,37.002 497.0,37.002 498.0,37.002 498.002,37.0 499.0,36.002 500.0,36.002 501.0,36.002 502.0,36.002 503.0,36.002 504.0,36.002 505.0,36.002 505.998,37.0 506.0,37.002 507.0,37.002 507.998,38.0 508.0,38.002 509.0,38.002 509.998,39.0 510.0,39.002 511.0,39.002 511.998,40.0 512.0,40.002 512.998,41.0 513.0,41.002 513.998,42.0 514.0,42.002 514.998,43.0 514.998,44.0 515.0,44.002 515.998,45.0 515.998,46.0 516.0,46.002 516.998,47.0 516.998,48.0 516.998,49.0 516.998,50.0 516.998,51.0 516.998,52.0 516.998,53.0 516.998,54.0 516.0,54.998 515.998,55.0 515.998,56.0 515.0,56.998 514.998,57.0 515.0,57.002 515.998,58.0 515.998,59.0 515.998,60.0 515.998,61.0 515.0,61.998 514.998,62.0 514.0,62.998 513.998,63.0 513.998,64.0 513.0,64.998 512.0,64.998 511.998,65.0 511.0,65.998 510.998,66.0 510.0,66.998 509.0,66.998 508.0,66.998 507.0,66.998 506.998,67.0 506.0,67.998" stroke="black" stroke-width="1" /><polyline fill="none" points="548.0,78.998 547.0,78.998 546.0,78.998 545.0,78.998 544.0,78.998 543.0,78.998 542.0,78.998 541.002,78.0 541.0,77.998 540.0,77.998 539.002,77.0 539.002,76.0 539.0,75.998 538.002,75.0 538.002,74.0 538.002,73.0 539.0,72.002 539.002,72.0 540.0,71.002 540.002,71.0 541.0,70.002 542.0,70.002 543.0,70.002 543.002,70.0 544.0,69.002 544.002,69.0 545.0,68.002 545.002,68.0 545.002,67.0 546.0,66.002 546.002,66.0 546.002,65.0 546.002,64.0 546.0,63.998 545.002,63.0 545.002,62.0 545.002,61.0 545.0,60.998 544.002,60.0 544.002,59.0 544.002,58.0 544.0,57.998 543.002,57.0 543.002,56.0 543.002,55.0 543.0,54.998 542.002,54.0 542.002,53.0 542.002,52.0 542.0,51.998 541.002,51.0 541.002,50.0 541.002,49.0 541.0,48.998 540.002,48.0 540.002,47.0 540.0,46.998 539.002,46.0 539.0,45.998 538.0,45.998 537.0,45.998 536.998,46.0 536.0,46.998 535.0,46.998 534.0,46.998 533.0,46.998 532.998,47.0 532.0,47.998 531.998,48.0 531.0,48.998 530.998,49.0 530.0,49.998 529.998,50.0 529.998,51.0 529.998,52.0 529.0,52.998 528.998,53.0 528.998,54.0 528.998,55.0 528.998,56.0 528.998,57.0 529.0,57.002 529.998,58.0 529.998,59.0 529.998,60.0 529.998,61.0 529.998,62.0 529.0,62.998 528.998,63.0 528.998,64.0 528.0,64.998 527.998,65.0 527.0,65.998 526.998,66.0 526.0,66.998 525.0,66.998 524.998,67.0 524.0,67.998 523.0,67.998 522.002,67.0 522.0,66.998 521.0,66.998 520.002,66.0 520.0,65.998 519.002,65.0 519.002,64.0 519.002,63.0 519.002,62.0 519.002,61.0 519.002,60.0 519.002,59.0 519.002,58.0 519.002,57.0 519.002,56.0 519.002,55.0 519.002,54.0 519.002,53.0 519.002,52.0 519.002,51.0 519.002,50.0 519.002,49.0 519.002,48.0 519.002,47.0 519.002,46.0 519.002,45.0 519.002,44.0 519.002,43.0 519.002,42.0 519.002,41.0 519.002,40.0 520.0,39.002 520.002,39.0 521.0,38.002 521.002,38.0 522.0,37.002 523.0,37.002 524.0,37.002 525.0,37.002 526.0,37.002 527.0,37.002 528.0,37.002 529.0,37.002 530.0,37.002 531.0,37.002 532.0,37.002 533.0,37.002 533.002,37.0 534.0,36.002 535.0,36.002 535.998,37.0 536.0,37.002 537.0,37.002 538.0,37.002 539.0,37.002 540.0,37.002 541.0,37.002 542.0,37.002 543.0,37.002 544.0,37.002 545.0,37.002 546.0,37.002 546.998,38.0 547.0,38.002 547.998,39.0 548.0,39.002 548.998,40.0 548.998,41.0 548.998,42.0 549.0,42.002 549.998,43.0 549.998,44.0 549.998,45.0 549.998,46.0 550.0,46.002 550.998,47.0 551.0,47.002 551.998,48.0 551.998,49.0 552.0,49.002 552.998,50.0 553.0,50.002 553.002,50.0 553.002,49.0 553.002,48.0 554.0,47.002 554.002,47.0 554.002,46.0 554.002,45.0 554.002,44.0 554.002,43.0 555.0,42.002 555.002,42.0 555.002,41.0 556.0,40.002 556.002,40.0 556.002,39.0 557.0,38.002 558.0,38.002 558.002,38.0 559.0,37.002 560.0,37.002 561.0,37.002 562.0,37.002 563.0,37.002 564.0,37.002 564.998,38.0 564.998,39.0 564.998,40.0 565.0,40.002 565.998,41.0 565.998,42.0 565.998,43.0 565.0,43.998 564.998,44.0 564.998,45.0 564.998,46.0 564.0,46.998 563.998,47.0 563.998,48.0 563.0,48.998 562.998,49.0 562.998,50.0 562.998,51.0 562.998,52.0 562.0,52.998 561.998,53.0 561.998,54.0 561.0,54.998 560.998,55.0 560.998,56.0 560.998,57.0 560.0,57.998 559.998,58.0 559.998,59.0 559.998,60.0 559.998,61.0 559.0,61.998 558.998,62.0 558.998,63.0 558.998,64.0 558.0,64.998 557.998,65.0 557.998,66.0 557.998,67.0 557.0,67.998 556.998,68.0 556.998,69.0 556.0,69.998 555.998,70.0 555.998,71.0 555.0,71.998 554.998,72.0 554.998,73.0 554.0,73.998 553.998,74.0 553.0,74.998 552.998,75.0 552.0,75.998 551.998,76.0 551.0,76.998 550.998,77.0 550.0,77.998 549.0,77.998 548.998,78.0 548.0,78.998" stroke="black" stroke-width="1" /><polyline fill="none" points="66.0,127.998 65.0,127.998 64.0,127.998 63.0,127.998 62.0,127.998 61.0,127.998 60.002,127.0 60.0,126.998 59.0,126.998 58.0,126.998 57.0,126.998 56.002,126.0 56.0,125.998 55.0,125.998 54.002,125.0 54.0,124.998 53.0,124.998 52.002,124.0 52.0,123.998 51.002,123.0 51.0,122.998 50.002,122.0 50.0,121.998 49.002,121.0 49.0,120.998 48.002,120.0 48.002,119.0 48.0,118.998 47.002,118.0 47.0,117.998 46.002,117.0 46.002,116.0 46.002,115.0 46.0,114.998 45.002,114.0 45.0,113.998 44.002,113.0 44.002,112.0 44.0,111.998 43.002,111.0 43.002,110.0 43.0,109.998 42.002,109.0 42.002,108.0 42.0,107.998 41.002,107.0 41.0,106.998 40.002,106.0 40.002,105.0 40.0,104.998 39.002,104.0 39.002,103.0 39.0,102.998 38.002,102.0 38.0,101.998 37.002,101.0 37.002,100.0 37.0,99.998 36.002,99.0 36.0,98.998 35.002,98.0 35.002,97.0 35.002,96.0 35.0,95.998 34.002,95.0 34.002,94.0 34.0,93.998 33.002,93.0 33.002,92.0 33.0,91.998 32.002,91.0 32.0,90.998 31.002,90.0 31.002,89.0 31.0,88.998 30.002,88.0 30.002,87.0 30.0,86.998 29.002,86.0 29.0,85.998 28.002,85.0 28.002,84.0 28.0,83.998 27.002,83.0 27.002,82.0 27.0,81.998 26.002,81.0 26.0,80.998 25.002,80.0 25.002,79.0 25.0,78.998 24.002,78.0 24.002,77.0 24.0,76.998 23.002,76.0 23.002,75.0 23.0,74.998 22.002,74.0 22.002,73.0 22.0,72.998 21.002,72.0 21.002,71.0 21.0,70.998 20.002,70.0 20.002,69.0 20.0,68.998 19.002,68.0 19.002,67.0 19.002,66.0 19.0,65.998 18.002,65.0 18.002,64.0 18.002,63.0 18.002,62.0 18.002,61.0 18.002,60.0 18.002,59.0 18.002,58.0 18.002,57.0 18.002,56.0 18.002,55.0 18.002,54.0 19.0,53.002 19.002,53.0 19.002,52.0 19.002,51.0 20.0,50.002 20.002,50.0 21.0,49.002 21.002,49.0 21.002,48.0 22.0,47.002 22.002,47.0 23.0,46.002 23.002,46.0 24.0,45.002 24.002,45.0 25.0,44.002 25.002,44.0 26.0,43.002 26.002,43.0 27.0,42.002 28.0,42.002 28.002,42.0 29.0,41.002 30.0,41.002 30.002,41.0 31.0,40.002 32.0,40.002 33.0,40.002 34.0,40.002 35.0,40.002 36.0,40.002 37.0,40.002 38.0,40.002 39.0,40.002 40.0,40.002 41.0,40.002 42.0,40.002 43.0,40.002 44.0,40.002 45.0,40.002 46.0,40.002 47.0,40.002 48.0,40.002 49.0,40.002 50.0,40.002 51.0,40.002 52.0,40.002 53.0,40.002 54.0,40.002 55.0,40.002 56.0,40.002 57.0,40.002 58.0,40.002 59.0,40.002 60.0,40.002 61.0,40.002 62.0,40.002 63.0,40.002 64.0,40.002 65.0,40.002 66.0,40.002 67.0,40.002 68.0,40.002 69.0,40.002 70.0,40.002 71.0,40.002 72.0,40.002 73.0,40.002 74.0,40.002 75.0,40.002 76.0,40.002 77.0,40.002 78.0,40.002 79.0,40.002 80.0,40.002 81.0,40.002 82.0,40.002 83.0,40.002 84.0,40.002 85.0,40.002 86.0,40.002 87.0,40.002 88.0,40.002 89.0,40.002 90.0,40.002 90.998,41.0 91.0,41.002 92.0,41.002 93.0,41.002 93.998,42.0 94.0,42.002 94.998,43.0 95.0,43.002 95.998,44.0 96.0,44.002 96.998,45.0 97.0,45.002 98.0,45.002 98.998,46.0 99.0,46.002 99.998,47.0 100.0,47.002 100.998,48.0 100.998,49.0 101.0,49.002 101.998,50.0 101.998,51.0 102.0,51.002 102.998,52.0 102.998,53.0 102.998,54.0 102.998,55.0 102.998,56.0 102.998,57.0 102.998,58.0 102.998,59.0 102.998,60.0 102.998,61.0 102.998,62.0 102.998,63.0 102.998,64.0 102.998,65.0 102.998,66.0 102.998,67.0 102.0,67.998 101.998,68.0 101.998,69.0 101.0,69.998 100.998,70.0 100.998,71.0 100.0,71.998 99.998,72.0 99.0,72.998 98.998,73.0 98.0,73.998 97.998,74.0 97.0,74.998 96.998,75.0 96.0,75.998 95.998,76.0 95.0,76.998 94.998,77.0 94.0,77.998 93.0,77.998 92.0,77.998 91.998,78.0 91.0,78.998 90.0,78.998 89.0,78.998 88.0,78.998 87.0,78.998 86.0,78.998 85.0,78.998 84.0,78.998 83.0,78.998 82.0,78.998 81.998,79.0 81.0,79.998 80.0,79.998 79.0,79.998 78.0,79.998 77.002,79.0 77.0,78.998 76.0,78.998 75.0,78.998 74.998,79.0 74.0,79.998 73.0,79.998 72.998,80.0 72.0,80.998 71.998,81.0 71.998,82.0 71.998,83.0 72.0,83.002 72.998,84.0 72.998,85.0 73.0,85.002 73.998,86.0 73.998,87.0 74.0,87.002 74.998,88.0 75.0,88.002 75.998,89.0 75.998,90.0 76.0,90.002 76.998,91.0 76.998,92.0 77.0,92.002 77.998,93.0 77.998,94.0 78.0,94.002 78.998,95.0 79.0,95.002 79.998,96.0 79.998,97.0 80.0,97.002 80.998,98.0 80.998,99.0 81.0,99.002 81.998,100.0 82.0,100.002 82.998,101.0 82.998,102.0 82.998,103.0 83.0,103.002 83.998,104.0 83.998,105.0 83.998,106.0 83.998,107.0 83.998,108.0 83.998,109.0 83.998,110.0 83.998,111.0 83.998,112.0 83.0,112.998 82.998,113.0 82.998,114.0 82.0,114.998 81.998,115.0 81.998,116.0 81.998,117.0 81.0,117.998 80.998,118.0 80.998,119.0 80.0,119.998 79.0,119.998 78.998,120.0 78.0,120.998 77.998,121.0 77.0,121.998 76.998,122.0 76.0,122.998 75.0,122.998 74.998,123.0 74.0,123.998 73.998,124.0 73.0,124.998 72.0,124.998 71.998,125.0 71.0,125.998 70.0,125.998 69.998,126.0 69.0,126.998 68.0,126.998 67.0,126.998 66.998,127.0 66.0,127.998" stroke="black" stroke-width="1" /><polyline fill="none" points="92.0,170.998 91.0,170.998 90.0,170.998 89.0,170.998 88.0,170.998 87.0,170.998 86.0,170.998 85.002,170.0 85.0,169.998 84.0,169.998 83.0,169.998 82.002,169.0 82.0,168.998 81.0,168.998 80.002,168.0 80.0,167.998 79.0,167.998 78.002,167.0 78.0,166.998 77.002,166.0 77.0,165.998 76.002,165.0 76.0,164.998 75.002,164.0 75.002,163.0 75.0,162.998 74.002,162.0 74.0,161.998 73.002,161.0 73.0,160.998 72.002,160.0 72.002,159.0 72.0,158.998 71.002,158.0 71.002,157.0 71.002,156.0 71.0,155.998 70.002,155.0 70.002,154.0 70.002,153.0 70.002,152.0 70.002,151.0 70.002,150.0 70.002,149.0 70.002,148.0 70.002,147.0 71.0,146.002 71.002,146.0 71.002,145.0 72.0,144.002 72.002,144.0 72.002,143.0 72.002,142.0 73.0,141.002 73.002,141.0 73.002,140.0 74.0,139.002 74.002,139.0 74.002,138.0 74.002,137.0 75.0,136.002 75.002,136.0 76.0,135.002 76.002,135.0 76.002,134.0 77.0,133.002 77.002,133.0 77.002,132.0 78.0,131.002 78.002,131.0 79.0,130.002 79.002,130.0 79.002,129.0 80.0,128.002 80.002,128.0 81.0,127.002 81.002,127.0 82.0,126.002 82.002,126.0 82.002,125.0 83.0,124.002 83.002,124.0 84.0,123.002 84.002,123.0 84.002,122.0 84.002,121.0 84.002,120.0 85.0,119.002 85.002,119.0 86.0,118.002 86.002,118.0 87.0,117.002 87.002,117.0 87.002,116.0 88.0,115.002 88.002,115.0 89.0,114.002 89.002,114.0 89.002,113.0 89.002,112.0 90.0,111.002 90.002,111.0 91.0,110.002 91.002,110.0 91.002,109.0 92.0,108.002 92.002,108.0 92.002,107.0 93.0,106.002 93.002,106.0 93.002,105.0 94.0,104.002 94.002,104.0 94.002,103.0 95.0,102.002 95.002,102.0 96.0,101.002 96.002,101.0 96.002,100.0 97.0,99.002 97.002,99.0 98.0,98.002 98.002,98.0 98.002,97.0 98.002,96.0 99.0,95.002 99.002,95.0 99.002,94.0 99.002,93.0 99.002,92.0 99.002,91.0 99.002,90.0 99.002,89.0 100.0,88.002 100.002,88.0 100.002,87.0 101.0,86.002 101.002,86.0 101.002,85.0 102.0,84.002 102.002,84.0 102.002,83.0 103.0,82.002 103.002,82.0 104.0,81.002 104.002,81.0 104.002,80.0 105.0,79.002 105.002,79.0 105.002,78.0 106.0,77.002 106.002,77.0 106.002,76.0 107.0,75.002 107.002,75.0 107.002,74.0 108.0,73.002 108.002,73.0 109.0,72.002 109.002,72.0 109.002,71.0 110.0,70.002 110.002,70.0 110.002,69.0 111.0,68.002 111.002,68.0 112.0,67.002 112.002,67.0 112.002,66.0 113.0,65.002 113.002,65.0 113.002,64.0 114.0,63.002 114.002,63.0 114.002,62.0 115.0,61.002 115.002,61.0 116.0,60.002 116.002,60.0 116.002,59.0 117.0,58.002 117.002,58.0 117.002,57.0 118.0,56.002 118.002,56.0 118.002,55.0 119.0,54.002 119.002,54.0 120.0,53.002 120.002,53.0 120.002,52.0 121.0,51.002 121.002,51.0 121.002,50.0 122.0,49.002 122.002,49.0 123.0,48.002 123.002,48.0 124.0,47.002 124.002,47.0 125.0,46.002 125.002,46.0 126.0,45.002 126.002,45.0 127.0,44.002 128.0,44.002 128.002,44.0 129.0,43.002 130.0,43.002 130.002,43.0 131.0,42.002 131.002,42.0 132.0,41.002 133.0,41.002 134.0,41.002 134.002,41.0 135.0,40.002 136.0,40.002 137.0,40.002 138.0,40.002 139.0,40.002 140.0,40.002 141.0,40.002 142.0,40.002 143.0,40.002 143.998,41.0 144.0,41.002 145.0,41.002 146.0,41.002 147.0,41.002 147.998,42.0 148.0,42.002 149.0,42.002 149.998,43.0 150.0,43.002 150.998,44.0 151.0,44.002 152.0,44.002 152.998,45.0 153.0,45.002 153.998,46.0 154.0,46.002 154.998,47.0 155.0,47.002 155.998,48.0 156.0,48.002 156.998,49.0 157.0,49.002 157.998,50.0 157.998,51.0 158.0,51.002 158.998,52.0 159.0,52.002 159.998,53.0 159.998,54.0 160.0,54.002 160.998,55.0 160.998,56.0 160.998,57.0 160.998,58.0 160.998,59.0 161.0,59.002 161.998,60.0 161.998,61.0 161.998,62.0 161.998,63.0 161.998,64.0 161.998,65.0 161.0,65.998 160.998,66.0 160.998,67.0 160.998,68.0 160.998,69.0 160.998,70.0 160.0,70.998 159.998,71.0 159.998,72.0 159.998,73.0 159.0,73.998 158.998,74.0 158.0,74.998 157.998,75.0 157.998,76.0 157.0,76.998 156.998,77.0 156.998,78.0 156.0,78.998 155.998,79.0 155.998,80.0 155.0,80.998 154.998,81.0 154.0,81.998 153.998,82.0 153.998,83.0 153.0,83.998 152.998,84.0 152.998,85.0 152.998,86.0 152.0,86.998 151.998,87.0 151.0,87.998 150.998,88.0 150.0,88.998 149.998,89.0 149.998,90.0 149.0,90.998 148.998,91.0 148.998,92.0 148.0,92.998 147.998,93.0 147.998,94.0 147.0,94.998 146.998,95.0 146.998,96.0 146.0,96.998 145.998,97.0 145.0,97.998 144.998,98.0 144.998,99.0 144.0,99.998 143.998,100.0 143.0,100.998 142.998,101.0 142.0,101.998 141.998,102.0 141.998,103.0 141.998,104.0 141.0,104.998 140.998,105.0 140.998,106.0 140.0,106.998 139.998,107.0 139.0,107.998 138.998,108.0 138.998,109.0 138.0,109.998 137.998,110.0 137.0,110.998 136.998,111.0 136.0,111.998 135.998,112.0 135.0,112.998 134.998,113.0 134.0,113.998 133.0,113.998 132.998,114.0 132.998,115.0 132.0,115.998 131.998,116.0 131.0,116.998 130.998,117.0 130.998,118.0 130.998,119.0 130.0,119.998 129.998,120.0 129.0,120.998 128.998,121.0 128.0,121.998 127.998,122.0 127.998,123.0 127.0,123.998 126.998,124.0 126.0,124.998 125.998,125.0 125.998,126.0 125.0,126.998 124.998,127.0 124.998,128.0 124.0,128.998 123.998,129.0 123.998,130.0 123.0,130.998 122.998,131.0 122.0,131.998 121.998,132.0 121.998,133.0 121.0,133.998 120.998,134.0 120.998,135.0 120.0,135.998 119.998,136.0 119.0,136.998 118.998,137.0 118.998,138.0 118.998,139.0 118.0,139.998 117.998,140.0 117.998,141.0 117.0,141.998 116.998,142.0 116.0,142.998 115.998,143.0 115.998,144.0 115.0,144.998 114.998,145.0 114.0,145.998 113.998,146.0 113.998,147.0 113.0,147.998 112.998,148.0 112.998,149.0 112.0,149.998 111.998,150.0 111.998,151.0 111.998,152.0 111.0,152.998 110.998,153.0 110.0,153.998 109.998,154.0 109.998,155.0 109.0,155.998 108.998,156.0 108.0,156.998 107.998,157.0 107.0,157.998 106.998,158.0 106.998,159.0 106.998,160.0 106.0,160.998 105.998,161.0 105.998,162.0 105.0,162.998 104.998,163.0 104.0,163.998 103.998,164.0 103.0,164.998 102.0,164.998 101.998,165.0 101.0,165.998 100.998,166.0 100.0,166.998 99.998,167.0 99.0,167.998 98.998,168.0 98.0,168.998 97.0,168.998 96.998,169.0 96.0,169.998 95.0,169.998 94.0,169.998 93.0,169.998 92.998,170.0 92.0,170.998" stroke="black" stroke-width="1" /><polyline fill="none" points="290.0,71.998 289.0,71.998 288.0,71.998 287.0,71.998 286.0,71.998 285.0,71.998 284.0,71.998 283.0,71.998 282.002,71.0 282.0,70.998 281.0,70.998 280.0,70.998 279.002,70.0 279.0,69.998 278.0,69.998 277.002,69.0 277.0,68.998 276.0,68.998 275.002,68.0 275.0,67.998 274.002,67.0 274.0,66.998 273.002,66.0 273.0,65.998 272.002,65.0 272.002,64.0 272.0,63.998 271.002,63.0 271.002,62.0 271.002,61.0 271.002,60.0 271.002,59.0 271.002,58.0 271.002,57.0 271.002,56.0 272.0,55.002 272.002,55.0 272.002,54.0 272.002,53.0 273.0,52.002 273.002,52.0 274.0,51.002 274.002,51.0 275.0,50.002 275.002,50.0 276.0,49.002 276.002,49.0 277.0,48.002 278.0,48.002 278.002,48.0 279.0,47.002 280.0,47.002 280.002,47.0 281.0,46.002 282.0,46.002 283.0,46.002 283.002,46.0 284.0,45.002 285.0,45.002 286.0,45.002 287.0,45.002 288.0,45.002 289.0,45.002 289.998,46.0 290.0,46.002 291.0,46.002 292.0,46.002 292.998,47.0 293.0,47.002 294.0,47.002 294.998,48.0 295.0,48.002 296.0,48.002 296.998,49.0 297.0,49.002 297.998,50.0 298.0,50.002 298.998,51.0 299.0,51.002 299.998,52.0 300.0,52.002 300.998,53.0 300.998,54.0 301.0,54.002 301.998,55.0 301.998,56.0 301.998,57.0 301.998,58.0 301.998,59.0 301.998,60.0 301.998,61.0 301.998,62.0 301.0,62.998 300.998,63.0 300.998,64.0 300.0,64.998 299.998,65.0 299.998,66.0 299.0,66.998 298.998,67.0 298.0,67.998 297.0,67.998 296.998,68.0 296.0,68.998 295.998,69.0 295.0,69.998 294.0,69.998 293.998,70.0 293.0,70.998 292.0,70.998 291.0,70.998 290.998,71.0 290.0,71.998" stroke="black" stroke-width="1" /><polyline fill="none" points="447.002,58.0 448.0,57.002 448.002,57.0 449.0,56.002 449.002,56.0 450.0,55.002 450.002,55.0 450.002,54.0 450.002,53.0 450.002,52.0 450.002,51.0 450.002,50.0 450.0,49.998 449.002,49.0 449.002,48.0 449.0,47.998 448.002,47.0 448.0,46.998 447.0,46.998 446.0,46.998 445.002,46.0 445.0,45.998 444.998,46.0 444.0,46.998 443.0,46.998 442.0,46.998 441.998,47.0 441.0,47.998 440.998,48.0 440.998,49.0 440.0,49.998 439.998,50.0 439.998,51.0 439.998,52.0 439.998,53.0 439.998,54.0 439.998,55.0 440.0,55.002 440.998,56.0 441.0,56.002 441.998,57.0 442.0,57.002 442.998,58.0 443.0,58.002 444.0,58.002 445.0,58.002 446.0,58.002 447.0,58.002 447.002,58.0" stroke="black" stroke-width="1" /><polyline fill="none" points="344.002,58.0 345.0,57.002 345.002,57.0 346.0,56.002 346.002,56.0 347.0,55.002 347.002,55.0 347.002,54.0 347.002,53.0 347.002,52.0 347.002,51.0 347.002,50.0 347.0,49.998 346.002,49.0 346.002,48.0 346.0,47.998 345.0,47.998 344.002,47.0 344.0,46.998 343.0,46.998 342.0,46.998 341.0,46.998 340.0,46.998 339.998,47.0 339.0,47.998 338.998,48.0 338.998,49.0 338.998,50.0 338.0,50.998 337.998,51.0 337.998,52.0 337.998,53.0 337.998,54.0 338.0,54.002 338.998,55.0 338.998,56.0 339.0,56.002 339.998,57.0 340.0,57.002 340.998,58.0 341.0,58.002 342.0,58.002 343.0,58.002 344.0,58.002 344.002,58.0" stroke="black" stroke-width="1" /><polyline fill="none" points="416.002,58.0 417.0,57.002 418.0,57.002 418.002,57.0 419.0,56.002 419.002,56.0 420.0,55.002 420.002,55.0 421.0,54.002 422.0,54.002 422.002,54.0 423.0,53.002 424.0,53.002 425.0,53.002 425.998,54.0 426.0,54.002 427.0,54.002 428.0,54.002 428.002,54.0 428.002,53.0 429.0,52.002 429.002,52.0 429.002,51.0 429.0,50.998 428.002,50.0 428.0,49.998 427.0,49.998 426.0,49.998 425.998,50.0 425.0,50.998 424.0,50.998 423.0,50.998 422.0,50.998 421.002,50.0 421.0,49.998 420.0,49.998 419.002,49.0 419.0,48.998 418.002,48.0 418.0,47.998 417.0,47.998 416.002,47.0 416.0,46.998 415.0,46.998 414.0,46.998 413.0,46.998 412.0,46.998 411.998,47.0 411.0,47.998 410.998,48.0 410.0,48.998 409.998,49.0 409.998,50.0 409.998,51.0 409.0,51.998 408.998,52.0 408.998,53.0 409.0,53.002 409.998,54.0 409.998,55.0 409.998,56.0 410.0,56.002 410.998,57.0 411.0,57.002 411.998,58.0 412.0,58.002 413.0,58.002 414.0,58.002 415.0,58.002 416.0,58.002 416.002,58.0" stroke="black" stroke-width="1" /><polyline fill="none" points="505.002,58.0 506.0,57.002 506.002,57.0 506.0,56.998 505.0,56.998 504.0,56.998 503.002,56.0 503.0,55.998 502.0,55.998 501.0,55.998 500.998,56.0 500.0,56.998 499.0,56.998 498.998,57.0 499.0,57.002 499.998,58.0 500.0,58.002 501.0,58.002 502.0,58.002 503.0,58.002 504.0,58.002 505.0,58.002 505.002,58.0" stroke="black" stroke-width="1" /><polyline fill="none" points="385.002,58.0 385.002,57.0 385.0,56.998 384.0,56.998 383.0,56.998 382.0,56.998 381.998,57.0 382.0,57.002 382.998,58.0 383.0,58.002 384.0,58.002 385.0,58.002 385.002,58.0" stroke="black" stroke-width="1" /><polyline fill="none" points="386.0,164.998 385.0,164.998 384.0,164.998 383.0,164.998 382.0,164.998 381.002,164.0 381.0,163.998 380.0,163.998 379.0,163.998 378.998,164.0 378.0,164.998 377.0,164.998 376.0,164.998 375.0,164.998 374.0,164.998 373.002,164.0 373.0,163.998 372.0,163.998 371.0,163.998 370.0,163.998 369.002,163.0 369.0,162.998 368.002,162.0 368.0,161.998 367.002,161.0 367.002,160.0 367.0,159.998 366.002,159.0 366.002,158.0 366.002,157.0 366.002,156.0 366.002,155.0 366.002,154.0 366.002,153.0 366.002,152.0 366.002,151.0 366.002,150.0 366.002,149.0 366.002,148.0 366.002,147.0 366.002,146.0 366.002,145.0 366.002,144.0 366.002,143.0 366.002,142.0 366.002,141.0 366.002,140.0 366.002,139.0 366.002,138.0 366.002,137.0 366.002,136.0 366.002,135.0 366.002,134.0 366.002,133.0 366.002,132.0 366.002,131.0 366.002,130.0 366.002,129.0 366.002,128.0 366.002,127.0 366.002,126.0 366.002,125.0 366.002,124.0 366.002,123.0 366.002,122.0 366.002,121.0 366.002,120.0 366.002,119.0 366.002,118.0 366.002,117.0 366.002,116.0 366.002,115.0 366.002,114.0 366.002,113.0 366.002,112.0 366.002,111.0 366.0,110.998 365.002,110.0 365.002,109.0 365.002,108.0 365.0,107.998 364.002,107.0 364.0,106.998 363.002,106.0 363.0,105.998 362.002,105.0 362.0,104.998 361.0,104.998 360.002,104.0 360.0,103.998 359.0,103.998 358.0,103.998 357.002,103.0 357.0,102.998 356.0,102.998 355.0,102.998 354.0,102.998 353.0,102.998 352.0,102.998 351.0,102.998 350.0,102.998 349.998,103.0 349.0,103.998 348.0,103.998 347.998,104.0 347.0,104.998 346.0,104.998 345.998,105.0 345.0,105.998 344.998,106.0 344.0,106.998 343.998,107.0 343.0,107.998 342.998,108.0 342.0,108.998 341.998,109.0 341.0,109.998 340.998,110.0 340.0,110.998 339.998,111.0 339.998,112.0 339.998,113.0 339.998,114.0 339.0,114.998 338.998,115.0 338.998,116.0 338.998,117.0 338.998,118.0 338.998,119.0 338.998,120.0 338.998,121.0 338.0,121.998 337.998,122.0 337.998,123.0 337.998,124.0 337.998,125.0 337.998,126.0 337.998,127.0 337.998,128.0 337.998,129.0 337.998,130.0 337.998,131.0 337.998,132.0 337.998,133.0 338.0,133.002 338.998,134.0 338.998,135.0 338.998,136.0 338.998,137.0 338.0,137.998 337.998,138.0 337.998,139.0 337.998,140.0 337.998,141.0 337.998,142.0 338.0,142.002 338.998,143.0 338.998,144.0 338.998,145.0 338.998,146.0 338.998,147.0 338.998,148.0 338.0,148.998 337.998,149.0 337.998,150.0 337.998,151.0 337.998,152.0 338.0,152.002 338.998,153.0 338.998,154.0 338.998,155.0 338.998,156.0 338.998,157.0 338.998,158.0 338.0,158.998 337.998,159.0 337.998,160.0 337.998,161.0 337.0,161.998 336.998,162.0 336.0,162.998 335.998,163.0 335.0,163.998 334.0,163.998 333.0,163.998 332.0,163.998 331.0,163.998 330.998,164.0 330.0,164.998 329.0,164.998 328.002,164.0 328.0,163.998 327.0,163.998 326.0,163.998 325.0,163.998 324.0,163.998 323.0,163.998 322.0,163.998 321.0,163.998 320.0,163.998 319.0,163.998 318.0,163.998 317.0,163.998 316.0,163.998 315.0,163.998 314.002,163.0 314.0,162.998 313.0,162.998 312.002,162.0 312.002,161.0 312.002,160.0 312.0,159.998 311.002,159.0 311.002,158.0 311.002,157.0 311.002,156.0 311.002,155.0 311.002,154.0 311.002,153.0 311.002,152.0 311.002,151.0 311.002,150.0 311.002,149.0 311.002,148.0 311.002,147.0 311.002,146.0 311.002,145.0 311.002,144.0 311.002,143.0 311.002,142.0 311.002,141.0 311.002,140.0 311.002,139.0 311.002,138.0 311.002,137.0 311.002,136.0 311.002,135.0 311.002,134.0 311.002,133.0 311.002,132.0 311.002,131.0 311.002,130.0 311.002,129.0 311.002,128.0 311.002,127.0 311.002,126.0 311.002,125.0 311.002,124.0 311.002,123.0 311.002,122.0 311.002,121.0 311.002,120.0 311.002,119.0 311.002,118.0 311.002,117.0 311.002,116.0 311.002,115.0 311.002,114.0 311.002,113.0 311.002,112.0 311.002,111.0 311.002,110.0 311.002,109.0 311.002,108.0 311.002,107.0 311.002,106.0 311.002,105.0 311.002,104.0 311.002,103.0 311.002,102.0 311.002,101.0 311.002,100.0 311.002,99.0 311.002,98.0 311.002,97.0 311.002,96.0 311.002,95.0 311.002,94.0 311.002,93.0 311.002,92.0 311.002,91.0 311.002,90.0 311.002,89.0 311.002,88.0 311.002,87.0 311.002,86.0 311.002,85.0 312.0,84.002 312.002,84.0 313.0,83.002 313.002,83.0 314.0,82.002 314.002,82.0 315.0,81.002 316.0,81.002 316.002,81.0 317.0,80.002 318.0,80.002 319.0,80.002 320.0,80.002 321.0,80.002 322.0,80.002 323.0,80.002 324.0,80.002 325.0,80.002 326.0,80.002 327.0,80.002 328.0,80.002 329.0,80.002 330.0,80.002 331.0,80.002 331.998,81.0 332.0,81.002 333.0,81.002 334.0,81.002 335.0,81.002 335.998,82.0 336.0,82.002 336.998,83.0 337.0,83.002 337.998,84.0 337.998,85.0 337.998,86.0 337.998,87.0 337.998,88.0 338.0,88.002 339.0,88.002 340.0,88.002 340.002,88.0 341.0,87.002 341.002,87.0 342.0,86.002 343.0,86.002 343.002,86.0 344.0,85.002 344.002,85.0 345.0,84.002 345.002,84.0 346.0,83.002 347.0,83.002 347.002,83.0 348.0,82.002 349.0,82.002 350.0,82.002 350.002,82.0 351.0,81.002 352.0,81.002 352.002,81.0 353.0,80.002 354.0,80.002 355.0,80.002 356.0,80.002 357.0,80.002 357.002,80.0 358.0,79.002 359.0,79.002 360.0,79.002 361.0,79.002 362.0,79.002 363.0,79.002 364.0,79.002 364.002,79.0 365.0,78.002 365.998,79.0 366.0,79.002 367.0,79.002 368.0,79.002 369.0,79.002 369.998,80.0 370.0,80.002 371.0,80.002 372.0,80.002 373.0,80.002 374.0,80.002 375.0,80.002 375.998,81.0 376.0,81.002 377.0,81.002 377.998,82.0 378.0,82.002 378.998,83.0 379.0,83.002 380.0,83.002 380.998,84.0 381.0,84.002 381.998,85.0 382.0,85.002 382.998,86.0 383.0,86.002 384.0,86.002 384.998,87.0 385.0,87.002 385.998,88.0 386.0,88.002 386.998,89.0 387.0,89.002 387.998,90.0 387.998,91.0 388.0,91.002 388.998,92.0 389.0,92.002 389.998,93.0 389.998,94.0 390.0,94.002 390.998,95.0 390.998,96.0 391.0,96.002 391.998,97.0 391.998,98.0 391.998,99.0 391.998,100.0 392.0,100.002 392.998,101.0 392.998,102.0 392.998,103.0 392.998,104.0 393.0,104.002 393.998,105.0 393.998,106.0 393.998,107.0 393.998,108.0 393.998,109.0 393.998,110.0 393.998,111.0 393.998,112.0 393.998,113.0 393.998,114.0 393.998,115.0 393.998,116.0 393.998,117.0 393.998,118.0 393.998,119.0 393.998,120.0 393.998,121.0 393.998,122.0 393.998,123.0 393.998,124.0 393.998,125.0 393.998,126.0 393.998,127.0 393.998,128.0 393.998,129.0 393.998,130.0 393.998,131.0 393.998,132.0 393.998,133.0 393.998,134.0 393.998,135.0 393.998,136.0 393.998,137.0 393.998,138.0 393.998,139.0 393.998,140.0 393.998,141.0 393.998,142.0 393.998,143.0 393.998,144.0 393.998,145.0 393.998,146.0 393.998,147.0 393.998,148.0 393.998,149.0 393.998,150.0 393.998,151.0 393.998,152.0 393.998,153.0 393.998,154.0 393.998,155.0 393.998,156.0 393.998,157.0 393.998,158.0 393.998,159.0 393.998,160.0 393.0,160.998 392.998,161.0 392.998,162.0 392.0,162.998 391.0,162.998 390.998,163.0 390.0,163.998 389.0,163.998 388.0,163.998 387.0,163.998 386.998,164.0 386.0,164.998" stroke="black" stroke-width="1" /><polyline fill="none" points="458.0,165.998 457.0,165.998 456.0,165.998 455.0,165.998 454.0,165.998 453.0,165.998 452.0,165.998 451.0,165.998 450.0,165.998 449.0,165.998 448.0,165.998 447.0,165.998 446.0,165.998 445.0,165.998 444.0,165.998 443.0,165.998 442.0,165.998 441.0,165.998 440.0,165.998 439.0,165.998 438.0,165.998 437.0,165.998 436.002,165.0 436.0,164.998 435.0,164.998 434.0,164.998 433.0,164.998 432.002,164.0 432.0,163.998 431.0,163.998 430.002,163.0 430.0,162.998 429.0,162.998 428.0,162.998 427.002,162.0 427.0,161.998 426.0,161.998 425.002,161.0 425.0,160.998 424.0,160.998 423.0,160.998 422.002,160.0 422.0,159.998 421.0,159.998 420.002,159.0 420.0,158.998 419.002,158.0 419.0,157.998 418.002,157.0 418.0,156.998 417.0,156.998 416.002,156.0 416.0,155.998 415.002,155.0 415.0,154.998 414.002,154.0 414.0,153.998 413.002,153.0 413.002,152.0 413.0,151.998 412.002,151.0 412.0,150.998 411.002,150.0 411.0,149.998 410.002,149.0 410.0,148.998 409.002,148.0 409.002,147.0 409.0,146.998 408.002,146.0 408.0,145.998 407.002,145.0 407.002,144.0 407.0,143.998 406.002,143.0 406.002,142.0 406.0,141.998 405.002,141.0 405.002,140.0 405.0,139.998 404.002,139.0 404.002,138.0 404.002,137.0 404.0,136.998 403.002,136.0 403.002,135.0 403.002,134.0 403.0,133.998 402.002,133.0 402.002,132.0 402.002,131.0 402.002,130.0 402.002,129.0 402.002,128.0 402.002,127.0 402.0,126.998 401.002,126.0 401.002,125.0 401.002,124.0 401.002,123.0 401.002,122.0 401.002,121.0 402.0,120.002 402.002,120.0 402.002,119.0 402.002,118.0 402.002,117.0 402.002,116.0 402.002,115.0 402.002,114.0 402.002,113.0 403.0,112.002 403.002,112.0 403.002,111.0 403.002,110.0 403.002,109.0 404.0,108.002 404.002,108.0 404.002,107.0 404.002,106.0 405.0,105.002 405.002,105.0 405.002,104.0 406.0,103.002 406.002,103.0 406.002,102.0 407.0,101.002 407.002,101.0 407.002,100.0 408.0,99.002 408.002,99.0 409.0,98.002 409.002,98.0 410.0,97.002 410.002,97.0 410.002,96.0 411.0,95.002 411.002,95.0 412.0,94.002 412.002,94.0 413.0,93.002 413.002,93.0 414.0,92.002 414.002,92.0 415.0,91.002 415.002,91.0 416.0,90.002 416.002,90.0 417.0,89.002 417.002,89.0 418.0,88.002 419.0,88.002 419.002,88.0 420.0,87.002 420.002,87.0 421.0,86.002 422.0,86.002 422.002,86.0 423.0,85.002 424.0,85.002 424.002,85.0 425.0,84.002 425.002,84.0 426.0,83.002 427.0,83.002 427.002,83.0 428.0,82.002 429.0,82.002 430.0,82.002 430.002,82.0 431.0,81.002 432.0,81.002 433.0,81.002 433.002,81.0 434.0,80.002 435.0,80.002 436.0,80.002 437.0,80.002 438.0,80.002 439.0,80.002 440.0,80.002 440.002,80.0 441.0,79.002 442.0,79.002 443.0,79.002 444.0,79.002 445.0,79.002 446.0,79.002 447.0,79.002 448.0,79.002 449.0,79.002 450.0,79.002 451.0,79.002 452.0,79.002 453.0,79.002 454.0,79.002 455.0,79.002 455.998,80.0 456.0,80.002 457.0,80.002 458.0,80.002 459.0,80.002 460.0,80.002 460.998,81.0 461.0,81.002 462.0,81.002 463.0,81.002 463.998,82.0 464.0,82.002 465.0,82.002 465.998,83.0 466.0,83.002 467.0,83.002 468.0,83.002 468.998,84.0 469.0,84.002 469.998,85.0 470.0,85.002 471.0,85.002 471.998,86.0 472.0,86.002 473.0,86.002 473.998,87.0 474.0,87.002 474.998,88.0 475.0,88.002 475.998,89.0 476.0,89.002 477.0,89.002 477.998,90.0 478.0,90.002 478.998,91.0 479.0,91.002 479.998,92.0 480.0,92.002 480.998,93.0 481.0,93.002 481.998,94.0 482.0,94.002 482.998,95.0 483.0,95.002 483.998,96.0 483.998,97.0 484.0,97.002 484.998,98.0 485.0,98.002 485.998,99.0 485.998,100.0 486.0,100.002 486.998,101.0 486.998,102.0 487.0,102.002 487.998,103.0 487.998,104.0 488.0,104.002 488.998,105.0 488.998,106.0 489.0,106.002 489.998,107.0 489.998,108.0 489.998,109.0 490.0,109.002 490.998,110.0 490.998,111.0 490.998,112.0 490.998,113.0 491.0,113.002 491.998,114.0 491.998,115.0 491.998,116.0 491.998,117.0 491.998,118.0 491.998,119.0 491.998,120.0 491.998,121.0 491.998,122.0 491.998,123.0 491.998,124.0 491.998,125.0 491.998,126.0 491.998,127.0 491.998,128.0 491.998,129.0 491.998,130.0 491.998,131.0 491.0,131.998 490.998,132.0 490.998,133.0 490.998,134.0 490.0,134.998 489.998,135.0 489.998,136.0 489.998,137.0 489.0,137.998 488.998,138.0 488.998,139.0 488.998,140.0 488.0,140.998 487.998,141.0 487.998,142.0 487.998,143.0 487.0,143.998 486.998,144.0 486.998,145.0 486.0,145.998 485.998,146.0 485.0,146.998 484.998,147.0 484.0,147.998 483.998,148.0 483.998,149.0 483.0,149.998 482.998,150.0 482.0,150.998 481.998,151.0 481.0,151.998 480.998,152.0 480.0,152.998 479.998,153.0 479.0,153.998 478.998,154.0 478.0,154.998 477.998,155.0 477.0,155.998 476.998,156.0 476.0,156.998 475.998,157.0 475.0,157.998 474.998,158.0 474.0,158.998 473.0,158.998 472.998,159.0 472.0,159.998 471.0,159.998 470.998,160.0 470.0,160.998 469.0,160.998 468.998,161.0 468.0,161.998 467.0,161.998 466.998,162.0 466.0,162.998 465.0,162.998 464.0,162.998 463.998,163.0 463.0,163.998 462.0,163.998 461.0,163.998 460.998,164.0 460.0,164.998 459.0,164.998 458.998,165.0 458.0,165.998" stroke="black" stroke-width="1" /><polyline fill="none" points="236.0,164.998 235.0,164.998 234.0,164.998 233.0,164.998 232.0,164.998 231.0,164.998 230.0,164.998 229.0,164.998 228.002,164.0 228.0,163.998 227.0,163.998 226.0,163.998 225.0,163.998 224.0,163.998 223.0,163.998 222.0,163.998 221.0,163.998 220.998,164.0 220.0,164.998 219.0,164.998 218.0,164.998 217.0,164.998 216.002,164.0 216.0,163.998 215.0,163.998 214.0,163.998 213.0,163.998 212.0,163.998 211.002,163.0 211.0,162.998 210.002,162.0 210.0,161.998 209.002,161.0 209.002,160.0 209.0,159.998 208.002,159.0 208.002,158.0 208.0,157.998 207.002,157.0 207.002,156.0 207.002,155.0 207.002,154.0 207.0,153.998 206.002,153.0 206.002,152.0 206.002,151.0 206.0,150.998 205.002,150.0 205.002,149.0 205.002,148.0 205.002,147.0 205.0,146.998 204.002,146.0 204.002,145.0 204.0,144.998 203.002,144.0 203.002,143.0 203.002,142.0 203.0,141.998 202.002,141.0 202.002,140.0 202.002,139.0 202.002,138.0 202.0,137.998 201.002,137.0 201.002,136.0 201.0,135.998 200.002,135.0 200.002,134.0 200.002,133.0 200.0,132.998 199.002,132.0 199.002,131.0 199.002,130.0 199.002,129.0 199.002,128.0 199.0,127.998 198.002,127.0 198.002,126.0 198.002,125.0 198.0,124.998 197.002,124.0 197.002,123.0 197.002,122.0 197.0,121.998 196.002,121.0 196.002,120.0 196.002,119.0 196.0,118.998 195.002,118.0 195.002,117.0 195.002,116.0 195.002,115.0 195.0,114.998 194.002,114.0 194.002,113.0 194.002,112.0 194.0,111.998 193.002,111.0 193.002,110.0 193.002,109.0 193.0,108.998 192.002,108.0 192.002,107.0 192.002,106.0 192.0,105.998 191.002,105.0 191.002,104.0 191.002,103.0 191.002,102.0 191.0,101.998 190.002,101.0 190.002,100.0 190.002,99.0 190.0,98.998 189.002,98.0 189.002,97.0 189.002,96.0 189.0,95.998 188.002,95.0 188.002,94.0 188.002,93.0 188.0,92.998 187.002,92.0 187.002,91.0 187.002,90.0 187.002,89.0 187.0,88.998 186.002,88.0 186.002,87.0 186.002,86.0 186.002,85.0 186.002,84.0 187.0,83.002 187.002,83.0 188.0,82.002 188.002,82.0 189.0,81.002 189.002,81.0 190.0,80.002 191.0,80.002 192.0,80.002 193.0,80.002 194.0,80.002 195.0,80.002 196.0,80.002 196.998,81.0 197.0,81.002 197.002,81.0 198.0,80.002 199.0,80.002 200.0,80.002 201.0,80.002 202.0,80.002 203.0,80.002 204.0,80.002 205.0,80.002 206.0,80.002 207.0,80.002 207.998,81.0 208.0,81.002 209.0,81.002 210.0,81.002 210.998,82.0 211.0,82.002 212.0,82.002 212.998,83.0 212.998,84.0 213.0,84.002 213.998,85.0 213.998,86.0 213.998,87.0 213.998,88.0 213.998,89.0 214.0,89.002 214.998,90.0 214.998,91.0 214.998,92.0 215.0,92.002 215.998,93.0 215.998,94.0 215.998,95.0 215.998,96.0 216.0,96.002 216.998,97.0 216.998,98.0 216.998,99.0 216.998,100.0 216.998,101.0 217.0,101.002 217.998,102.0 217.998,103.0 217.998,104.0 218.0,104.002 218.998,105.0 218.998,106.0 218.998,107.0 219.0,107.002 219.998,108.0 219.998,109.0 219.998,110.0 219.998,111.0 219.998,112.0 219.998,113.0 220.0,113.002 220.998,114.0 220.998,115.0 220.998,116.0 220.998,117.0 221.0,117.002 221.998,118.0 221.998,119.0 222.0,119.002 222.998,120.0 222.998,121.0 222.998,122.0 222.998,123.0 222.998,124.0 223.0,124.002 223.998,125.0 223.998,126.0 223.998,127.0 223.998,128.0 224.0,128.002 224.998,129.0 224.998,130.0 224.998,131.0 225.0,131.002 225.998,132.0 225.998,133.0 225.998,134.0 225.998,135.0 225.998,136.0 226.0,136.002 226.998,137.0 226.998,138.0 227.0,138.002 227.002,138.0 227.002,137.0 228.0,136.002 228.002,136.0 228.002,135.0 228.002,134.0 228.002,133.0 228.002,132.0 229.0,131.002 229.002,131.0 229.002,130.0 229.002,129.0 230.0,128.002 230.002,128.0 230.002,127.0 230.002,126.0 230.002,125.0 231.0,124.002 231.002,124.0 231.002,123.0 231.002,122.0 231.002,121.0 231.002,120.0 232.0,119.002 232.002,119.0 232.002,118.0 232.002,117.0 233.0,116.002 233.002,116.0 233.002,115.0 233.002,114.0 233.002,113.0 233.002,112.0 234.0,111.002 234.002,111.0 234.002,110.0 234.002,109.0 234.002,108.0 235.0,107.002 235.002,107.0 235.002,106.0 235.002,105.0 235.002,104.0 236.0,103.002 236.002,103.0 236.002,102.0 236.002,101.0 236.002,100.0 237.0,99.002 237.002,99.0 237.002,98.0 237.002,97.0 237.002,96.0 237.002,95.0 238.0,94.002 238.002,94.0 238.002,93.0 238.002,92.0 239.0,91.002 239.002,91.0 239.002,90.0 239.002,89.0 239.002,88.0 239.002,87.0 239.002,86.0 240.0,85.002 240.002,85.0 240.002,84.0 241.0,83.002 241.002,83.0 242.0,82.002 242.002,82.0 243.0,81.002 244.0,81.002 245.0,81.002 245.002,81.0 246.0,80.002 247.0,80.002 248.0,80.002 249.0,80.002 250.0,80.002 251.0,80.002 252.0,80.002 253.0,80.002 254.0,80.002 255.0,80.002 256.0,80.002 257.0,80.002 258.0,80.002 259.0,80.002 260.0,80.002 261.0,80.002 262.0,80.002 262.998,81.0 263.0,81.002 264.0,81.002 265.0,81.002 265.998,82.0 266.0,82.002 266.998,83.0 267.0,83.002 267.998,84.0 267.998,85.0 267.998,86.0 267.998,87.0 267.0,87.998 266.998,88.0 266.998,89.0 266.998,90.0 266.0,90.998 265.998,91.0 265.998,92.0 265.998,93.0 265.0,93.998 264.998,94.0 264.998,95.0 264.998,96.0 264.0,96.998 263.998,97.0 263.998,98.0 263.998,99.0 263.0,99.998 262.998,100.0 262.998,101.0 262.998,102.0 262.0,102.998 261.998,103.0 261.998,104.0 261.998,105.0 261.998,106.0 261.0,106.998 260.998,107.0 260.998,108.0 260.998,109.0 260.998,110.0 260.0,110.998 259.998,111.0 259.998,112.0 259.0,112.998 258.998,113.0 258.998,114.0 258.998,115.0 258.998,116.0 258.0,116.998 257.998,117.0 257.998,118.0 257.998,119.0 257.0,119.998 256.998,120.0 256.998,121.0 256.998,122.0 256.0,122.998 255.998,123.0 255.998,124.0 255.998,125.0 255.0,125.998 254.998,126.0 254.998,127.0 254.998,128.0 254.998,129.0 254.0,129.998 253.998,130.0 253.998,131.0 253.998,132.0 253.0,132.998 252.998,133.0 252.998,134.0 252.998,135.0 252.0,135.998 251.998,136.0 251.998,137.0 251.998,138.0 251.0,138.998 250.998,139.0 250.998,140.0 250.998,141.0 250.998,142.0 250.998,143.0 250.0,143.998 249.998,144.0 249.998,145.0 249.0,145.998 248.998,146.0 248.998,147.0 248.998,148.0 248.998,149.0 248.0,149.998 247.998,150.0 247.998,151.0 247.998,152.0 247.998,153.0 247.998,154.0 247.0,154.998 246.998,155.0 246.998,156.0 246.998,157.0 246.0,157.998 245.998,158.0 245.998,159.0 245.0,159.998 244.998,160.0 244.998,161.0 244.0,161.998 243.998,162.0 243.0,162.998 242.998,163.0 242.0,163.998 241.0,163.998 240.0,163.998 239.0,163.998 238.0,163.998 237.0,163.998 236.998,164.0 236.0,164.998" stroke="black" stroke-width="1" /><polyline fill="none" points="285.0,164.998 284.0,164.998 283.0,164.998 282.0,164.998 281.002,164.0 281.0,163.998 280.0,163.998 279.0,163.998 278.0,163.998 277.0,163.998 276.0,163.998 275.002,163.0 275.0,162.998 274.002,162.0 274.0,161.998 273.002,161.0 273.002,160.0 273.002,159.0 273.002,158.0 273.0,157.998 272.002,157.0 272.002,156.0 272.002,155.0 272.002,154.0 272.002,153.0 272.002,152.0 272.002,151.0 272.002,150.0 272.002,149.0 272.002,148.0 272.002,147.0 272.002,146.0 272.002,145.0 272.002,144.0 273.0,143.002 273.002,143.0 273.002,142.0 273.002,141.0 273.0,140.998 272.002,140.0 272.002,139.0 272.002,138.0 272.002,137.0 273.0,136.002 273.002,136.0 273.002,135.0 273.002,134.0 273.0,133.998 272.002,133.0 272.002,132.0 272.002,131.0 272.002,130.0 272.002,129.0 272.002,128.0 272.002,127.0 272.002,126.0 272.002,125.0 273.0,124.002 273.002,124.0 273.002,123.0 273.002,122.0 273.002,121.0 273.002,120.0 273.002,119.0 273.002,118.0 273.002,117.0 273.002,116.0 273.002,115.0 273.002,114.0 273.0,113.998 272.002,113.0 272.002,112.0 272.002,111.0 272.002,110.0 272.002,109.0 272.002,108.0 272.002,107.0 272.002,106.0 272.002,105.0 272.002,104.0 272.002,103.0 272.002,102.0 272.002,101.0 272.002,100.0 272.002,99.0 272.002,98.0 273.0,97.002 273.002,97.0 273.002,96.0 273.002,95.0 273.002,94.0 273.002,93.0 273.002,92.0 273.002,91.0 273.0,90.998 272.002,90.0 272.002,89.0 272.002,88.0 272.002,87.0 273.0,86.002 273.002,86.0 273.002,85.0 273.002,84.0 273.002,83.0 274.0,82.002 275.0,82.002 275.002,82.0 276.0,81.002 277.0,81.002 278.0,81.002 278.002,81.0 279.0,80.002 280.0,80.002 281.0,80.002 282.0,80.002 283.0,80.002 284.0,80.002 285.0,80.002 286.0,80.002 287.0,80.002 288.0,80.002 289.0,80.002 290.0,80.002 291.0,80.002 292.0,80.002 293.0,80.002 294.0,80.002 295.0,80.002 295.998,81.0 296.0,81.002 297.0,81.002 297.998,82.0 298.0,82.002 298.998,83.0 299.0,83.002 299.998,84.0 299.998,85.0 299.998,86.0 299.998,87.0 299.998,88.0 299.998,89.0 299.998,90.0 299.998,91.0 299.998,92.0 299.998,93.0 299.998,94.0 299.998,95.0 299.998,96.0 299.998,97.0 299.998,98.0 299.998,99.0 299.998,100.0 299.998,101.0 299.998,102.0 299.998,103.0 299.998,104.0 299.998,105.0 299.998,106.0 299.998,107.0 299.998,108.0 299.998,109.0 299.998,110.0 299.998,111.0 299.998,112.0 299.998,113.0 299.998,114.0 299.998,115.0 299.998,116.0 299.998,117.0 299.998,118.0 299.998,119.0 299.998,120.0 299.998,121.0 299.998,122.0 299.998,123.0 299.998,124.0 299.998,125.0 299.998,126.0 299.998,127.0 299.998,128.0 299.998,129.0 299.998,130.0 299.998,131.0 299.998,132.0 299.998,133.0 299.998,134.0 299.998,135.0 299.998,136.0 299.998,137.0 299.998,138.0 299.998,139.0 299.998,140.0 299.998,141.0 299.998,142.0 299.998,143.0 299.998,144.0 299.998,145.0 299.998,146.0 299.998,147.0 299.998,148.0 299.998,149.0 299.998,150.0 299.998,151.0 299.998,152.0 299.998,153.0 299.998,154.0 299.998,155.0 299.998,156.0 299.998,157.0 299.998,158.0 299.998,159.0 299.0,159.998 298.998,160.0 298.998,161.0 298.998,162.0 298.0,162.998 297.998,163.0 297.0,163.998 296.0,163.998 295.0,163.998 294.0,163.998 293.0,163.998 292.0,163.998 291.0,163.998 290.0,163.998 289.0,163.998 288.0,163.998 287.0,163.998 286.0,163.998 285.998,164.0 285.0,164.998" stroke="black" stroke-width="1" /><polyline fill="none" points="541.0,164.998 540.0,164.998 539.0,164.998 538.002,164.0 538.0,163.998 537.0,163.998 536.0,163.998 535.0,163.998 534.0,163.998 533.0,163.998 532.0,163.998 531.0,163.998 530.0,163.998 529.0,163.998 528.0,163.998 527.0,163.998 526.998,164.0 526.0,164.998 525.0,164.998 524.0,164.998 523.0,164.998 522.002,164.0 522.0,163.998 521.0,163.998 520.0,163.998 519.0,163.998 518.002,163.0 518.0,162.998 517.0,162.998 516.002,162.0 516.0,161.998 515.002,161.0 515.002,160.0 515.0,159.998 514.002,159.0 514.002,158.0 514.002,157.0 514.0,156.998 513.002,156.0 513.002,155.0 513.002,154.0 513.002,153.0 513.0,152.998 512.002,152.0 512.002,151.0 512.002,150.0 512.0,149.998 511.002,149.0 511.002,148.0 511.002,147.0 511.0,146.998 510.002,146.0 510.002,145.0 510.002,144.0 510.0,143.998 509.002,143.0 509.002,142.0 509.002,141.0 509.0,140.998 508.002,140.0 508.002,139.0 508.002,138.0 508.0,137.998 507.002,137.0 507.002,136.0 507.002,135.0 507.002,134.0 507.0,133.998 506.002,133.0 506.002,132.0 506.002,131.0 506.002,130.0 506.0,129.998 505.002,129.0 505.002,128.0 505.002,127.0 505.0,126.998 504.002,126.0 504.002,125.0 504.002,124.0 504.0,123.998 503.002,123.0 503.002,122.0 503.002,121.0 503.0,120.998 502.002,120.0 502.002,119.0 502.002,118.0 502.0,117.998 501.002,117.0 501.002,116.0 501.002,115.0 501.002,114.0 501.0,113.998 500.002,113.0 500.002,112.0 500.002,111.0 500.0,110.998 499.002,110.0 499.002,109.0 499.002,108.0 499.0,107.998 498.002,107.0 498.002,106.0 498.002,105.0 498.0,104.998 497.002,104.0 497.002,103.0 497.002,102.0 497.002,101.0 497.002,100.0 497.0,99.998 496.002,99.0 496.002,98.0 496.002,97.0 496.0,96.998 495.002,96.0 495.002,95.0 495.002,94.0 495.0,93.998 494.002,93.0 494.002,92.0 494.002,91.0 494.0,90.998 493.002,90.0 493.002,89.0 493.002,88.0 493.0,87.998 492.002,87.0 492.002,86.0 492.002,85.0 492.002,84.0 493.0,83.002 493.002,83.0 494.0,82.002 494.002,82.0 495.0,81.002 496.0,81.002 496.002,81.0 497.0,80.002 498.0,80.002 499.0,80.002 500.0,80.002 501.0,80.002 502.0,80.002 503.0,80.002 504.0,80.002 505.0,80.002 506.0,80.002 507.0,80.002 508.0,80.002 509.0,80.002 510.0,80.002 511.0,80.002 512.0,80.002 513.0,80.002 514.0,80.002 515.0,80.002 515.998,81.0 516.0,81.002 517.0,81.002 517.998,82.0 518.0,82.002 518.998,83.0 518.998,84.0 519.0,84.002 519.998,85.0 519.998,86.0 520.0,86.002 520.998,87.0 520.998,88.0 520.998,89.0 520.998,90.0 520.998,91.0 521.0,91.002 521.998,92.0 521.998,93.0 521.998,94.0 521.998,95.0 522.0,95.002 522.998,96.0 522.998,97.0 522.998,98.0 522.998,99.0 523.0,99.002 523.998,100.0 523.998,101.0 523.998,102.0 524.0,102.002 524.998,103.0 524.998,104.0 524.998,105.0 524.998,106.0 525.0,106.002 525.998,107.0 525.998,108.0 525.998,109.0 525.998,110.0 526.0,110.002 526.998,111.0 526.998,112.0 526.998,113.0 526.998,114.0 527.0,114.002 527.998,115.0 527.998,116.0 527.998,117.0 527.998,118.0 527.998,119.0 528.0,119.002 528.998,120.0 528.998,121.0 528.998,122.0 529.0,122.002 529.998,123.0 529.998,124.0 529.998,125.0 529.998,126.0 530.0,126.002 530.998,127.0 530.998,128.0 530.998,129.0 530.998,130.0 530.998,131.0 531.0,131.002 531.998,132.0 531.998,133.0 531.998,134.0 532.0,134.002 532.998,135.0 533.0,135.002 534.0,135.002 534.002,135.0 534.002,134.0 535.0,133.002 535.002,133.0 535.002,132.0 535.002,131.0 535.002,130.0 535.002,129.0 536.0,128.002 536.002,128.0 536.002,127.0 536.002,126.0 536.002,125.0 537.0,124.002 537.002,124.0 537.002,123.0 537.002,122.0 537.002,121.0 538.0,120.002 538.002,120.0 538.002,119.0 538.002,118.0 538.002,117.0 538.002,116.0 539.0,115.002 539.002,115.0 539.002,114.0 539.002,113.0 540.0,112.002 540.002,112.0 540.002,111.0 540.002,110.0 540.002,109.0 541.0,108.002 541.002,108.0 541.002,107.0 541.002,106.0 541.002,105.0 542.0,104.002 542.002,104.0 542.002,103.0 542.002,102.0 543.0,101.002 543.002,101.0 543.002,100.0 543.002,99.0 543.002,98.0 543.002,97.0 544.0,96.002 544.002,96.0 544.002,95.0 544.002,94.0 544.002,93.0 544.002,92.0 545.0,91.002 545.002,91.0 545.002,90.0 545.002,89.0 545.002,88.0 545.002,87.0 546.0,86.002 546.002,86.0 546.002,85.0 547.0,84.002 547.002,84.0 548.0,83.002 548.002,83.0 549.0,82.002 549.002,82.0 550.0,81.002 551.0,81.002 552.0,81.002 552.002,81.0 553.0,80.002 554.0,80.002 555.0,80.002 556.0,80.002 557.0,80.002 558.0,80.002 559.0,80.002 560.0,80.002 561.0,80.002 562.0,80.002 563.0,80.002 564.0,80.002 565.0,80.002 566.0,80.002 567.0,80.002 568.0,80.002 569.0,80.002 570.0,80.002 570.998,81.0 571.0,81.002 571.998,82.0 572.0,82.002 572.998,83.0 573.0,83.002 573.998,84.0 573.998,85.0 573.998,86.0 573.998,87.0 573.0,87.998 572.998,88.0 572.998,89.0 572.998,90.0 572.0,90.998 571.998,91.0 571.998,92.0 571.998,93.0 571.0,93.998 570.998,94.0 570.998,95.0 570.998,96.0 570.998,97.0 570.0,97.998 569.998,98.0 569.998,99.0 569.998,100.0 569.0,100.998 568.998,101.0 568.998,102.0 568.998,103.0 568.0,103.998 567.998,104.0 567.998,105.0 567.998,106.0 567.998,107.0 567.0,107.998 566.998,108.0 566.998,109.0 566.998,110.0 566.0,110.998 565.998,111.0 565.998,112.0 565.998,113.0 565.998,114.0 565.0,114.998 564.998,115.0 564.998,116.0 564.998,117.0 564.998,118.0 564.0,118.998 563.998,119.0 563.998,120.0 563.0,120.998 562.998,121.0 562.998,122.0 562.998,123.0 562.0,123.998 561.998,124.0 561.998,125.0 561.998,126.0 561.998,127.0 561.0,127.998 560.998,128.0 560.998,129.0 560.998,130.0 560.0,130.998 559.998,131.0 559.998,132.0 559.998,133.0 559.0,133.998 558.998,134.0 558.998,135.0 558.998,136.0 558.998,137.0 558.0,137.998 557.998,138.0 557.998,139.0 557.998,140.0 557.0,140.998 556.998,141.0 556.998,142.0 556.998,143.0 556.0,143.998 555.998,144.0 555.998,145.0 555.998,146.0 555.998,147.0 555.0,147.998 554.998,148.0 554.998,149.0 554.998,150.0 554.998,151.0 554.0,151.998 553.998,152.0 553.998,153.0 553.998,154.0 553.0,154.998 552.998,155.0 552.998,156.0 552.998,157.0 552.0,157.998 551.998,158.0 551.998,159.0 551.998,160.0 551.998,161.0 551.0,161.998 550.998,162.0 550.0,162.998 549.0,162.998 548.998,163.0 548.0,163.998 547.0,163.998 546.0,163.998 545.0,163.998 544.0,163.998 543.0,163.998 542.0,163.998 541.998,164.0 541.0,164.998" stroke="black" stroke-width="1" /><polyline fill="none" points="452.002,143.0 453.0,142.002 454.0,142.002 454.002,142.0 455.0,141.002 456.0,141.002 456.002,141.0 457.0,140.002 457.002,140.0 458.0,139.002 459.0,139.002 459.002,139.0 459.002,138.0 460.0,137.002 460.002,137.0 461.0,136.002 461.002,136.0 462.0,135.002 462.002,135.0 462.002,134.0 463.0,133.002 463.002,133.0 463.002,132.0 463.002,131.0 463.002,130.0 464.0,129.002 464.002,129.0 464.002,128.0 464.002,127.0 464.002,126.0 464.002,125.0 464.002,124.0 464.002,123.0 465.0,122.002 465.002,122.0 465.002,121.0 465.002,120.0 465.0,119.998 464.002,119.0 464.002,118.0 464.002,117.0 464.002,116.0 464.0,115.998 463.002,115.0 463.002,114.0 463.002,113.0 463.0,112.998 462.002,112.0 462.002,111.0 462.0,110.998 461.002,110.0 461.002,109.0 461.0,108.998 460.002,108.0 460.0,107.998 459.002,107.0 459.0,106.998 458.002,106.0 458.0,105.998 457.002,105.0 457.0,104.998 456.002,104.0 456.0,103.998 455.0,103.998 454.002,103.0 454.0,102.998 453.0,102.998 452.0,102.998 451.002,102.0 451.0,101.998 450.0,101.998 449.0,101.998 448.0,101.998 447.0,101.998 446.0,101.998 445.0,101.998 444.0,101.998 443.0,101.998 442.0,101.998 441.0,101.998 440.998,102.0 440.0,102.998 439.0,102.998 438.998,103.0 438.0,103.998 437.998,104.0 437.0,104.998 436.998,105.0 436.0,105.998 435.998,106.0 435.0,106.998 434.0,106.998 433.998,107.0 433.998,108.0 433.0,108.998 432.998,109.0 432.998,110.0 432.0,110.998 431.998,111.0 431.0,111.998 430.998,112.0 430.998,113.0 430.998,114.0 430.0,114.998 429.998,115.0 429.998,116.0 429.998,117.0 429.998,118.0 429.998,119.0 429.998,120.0 429.998,121.0 429.998,122.0 429.998,123.0 429.998,124.0 429.998,125.0 429.998,126.0 429.998,127.0 429.998,128.0 429.998,129.0 429.998,130.0 430.0,130.002 430.998,131.0 430.998,132.0 430.998,133.0 431.0,133.002 431.998,134.0 431.998,135.0 432.0,135.002 432.998,136.0 432.998,137.0 433.0,137.002 433.998,138.0 434.0,138.002 434.998,139.0 435.0,139.002 436.0,139.002 436.998,140.0 437.0,140.002 437.998,141.0 438.0,141.002 439.0,141.002 439.998,142.0 440.0,142.002 441.0,142.002 441.998,143.0 442.0,143.002 443.0,143.002 444.0,143.002 445.0,143.002 446.0,143.002 447.0,143.002 448.0,143.002 449.0,143.002 450.0,143.002 451.0,143.002 452.0,143.002 452.002,143.0" stroke="black" stroke-width="1" /></svg>